# xmcd
#
# Track frame offsets: 
#        150
#        14400
#        33193
#        66246
#        80977
#        102550
#        124526
#        149989
#        178063
#        208062
#        226933
#        258365
#        276234
#
# Disc length: 3901 seconds
#
# Revision: 0
# Processed by: cddbd v1.5.2PL0 Copyright (c) Steve Scherf et al.
# Submitted via: ExactAudioCopyFreeDBPlugin 1.0
#
DISCID=c70f3b0d
DTITLE=Linsey Alexander - Come Back Baby
DYEAR=2014
DGENRE=Blues
TTITLE0=Little Bit Of Soap
TTITLE1=Booze And Blues
TTITLE2=I Got A Woman
TTITLE3=Come Back Baby
TTITLE4=Call My Wife
TTITLE5=Things Done Changed
TTITLE6=Can't Drink, Can't Sleep, Can't Eat
TTITLE7=Booty Call
TTITLE8=Too Old To Be A New Fool
TTITLE9=Snowing In Chicago
TTITLE10=I Can't Quit You Baby
TTITLE11=Funky Feeling
TTITLE12=Goin' Out Walkin'
EXTD=
EXTT0=
EXTT1=
EXTT2=
EXTT3=
EXTT4=
EXTT5=
EXTT6=
EXTT7=
EXTT8=
EXTT9=
EXTT10=
EXTT11=
EXTT12=
PLAYORDER=
